#!OML:ASF E:\Style4\Style4.ASF
:FULLY-SPECIFIED
:DEGREES
3190
root 0.758538 17.9567 0.564334 1.11259 -9.66821 -1.91489
lowerback 6.56355 1.78629 -1.61932
upperback 2.83 2.27418 0.247902
thorax -0.834315 1.1213 0.99887
lowerneck -2.20237 2.24607 -0.633857
upperneck 0.231037 2.95072 8.44023
head 0.305472 1.52652 2.8105
rclavicle 1.25234e-014 1.17283e-014
rhumerus -31.8565 12.8886 -93.1578
rradius 40.8346
rwrist 14.4078
rhand 19.6884 -3.26417
rfingers 7.12502
rthumb 44.2447 -27.0552
lclavicle 1.25234e-014 1.17283e-014
lhumerus -43.6671 -20.9645 96.7667
lradius 48.9623
lwrist 9.63713
lhand -3.77701 35.7144
lfingers 7.12502
lthumb 21.9681 64.487
rfemur -2.80316 7.12938 18.8787
rtibia 17.8312
rfoot -16.6197 -7.99449
rtoes -14.5003
lfemur -3.65924 -0.369463 -20.9086
ltibia 24.9101
lfoot -24.1125 16.9512
ltoes -9.16011
3191
root 0.746264 17.9615 0.538567 1.32191 -9.52013 -2.20813
lowerback 6.72026 1.76788 -1.67391
upperback 2.81851 2.24482 0.355718
thorax -0.938408 1.10658 1.13711
lowerneck -2.44133 2.155 -0.603636
upperneck 0.534133 2.79871 8.71826
head 0.447028 1.46605 2.90562
rclavicle -1.21756e-014 8.74653e-015
rhumerus -31.8131 12.8983 -93.1077
rradius 40.884
rwrist 14.4663
rhand 19.7904 -3.20963
rfingers 7.12502
rthumb 44.3398 -26.9646
lclavicle -1.21756e-014 8.74653e-015
lhumerus -43.6581 -21.0243 96.8045
lradius 49.02
lwrist 9.27161
lhand -3.43211 35.8098
lfingers 7.12502
lthumb 22.2992 64.5432
rfemur -2.76872 7.08432 19.2383
rtibia 17.3174
rfoot -16.3347 -8.04141
rtoes -14.2475
lfemur -4.16934 -0.44583 -20.5131
ltibia 25.351
lfoot -24.132 16.7996
ltoes -8.86594
3192
root 0.732857 17.9678 0.511921 1.58215 -9.30691 -2.56221
lowerback 6.86479 1.72449 -1.67575
upperback 2.7649 2.18595 0.472215
thorax -1.07634 1.07814 1.25691
lowerneck -2.5685 2.04642 -0.522294
upperneck 0.797079 2.62494 8.98114
head 0.559393 1.3919 2.98395
rclavicle -1.63997e-015 -1.51076e-014
rhumerus -31.8788 12.9621 -93.0935
rradius 40.9818
rwrist 14.4696
rhand 19.8397 -3.2785
rfingers 7.12502
rthumb 44.3857 -27.016
lclavicle -1.63997e-015 -1.51076e-014
lhumerus -43.7615 -21.1378 96.9546
lradius 49.0301
lwrist 9.33922
lhand -4.05133 35.3673
lfingers 7.12502
lthumb 21.7047 64.1706
rfemur -2.78619 7.02371 19.666
rtibia 16.8246
rfoot -16.0513 -8.11472
rtoes -13.8368
lfemur -4.75756 -0.543242 -20.0502
ltibia 25.7895
lfoot -24.0037 16.9855
ltoes -10.2933
3193
root 0.718746 17.9717 0.482247 1.82647 -9.06686 -2.84929
lowerback 7.00966 1.67005 -1.76465
upperback 2.7328 2.10659 0.562524
thorax -1.19334 1.03894 1.40105
lowerneck -2.66843 1.94758 -0.395374
upperneck 1.06288 2.46057 9.28116
head 0.66833 1.32317 3.06637
rclavicle 3.52843e-014 1.98785e-015
rhumerus -31.8788 13.1012 -93.1085
rradius 41.013
rwrist 14.4792
rhand 19.7703 -3.26449
rfingers 7.12502
rthumb 44.321 -27.0266
lclavicle 3.52843e-014 1.98785e-015
lhumerus -43.8062 -21.2105 97.0192
lradius 49.1324
lwrist 9.38613
lhand -4.26332 35.4699
lfingers 7.12502
lthumb 21.5011 64.2966
rfemur -2.8242 6.9107 20.0216
rtibia 16.3598
rfoot -15.7768 -8.19279
rtoes -13.657
lfemur -5.3192 -0.721627 -19.6492
ltibia 26.1818
lfoot -24.0344 17.0211
ltoes -11.0589
3194
root 0.706785 17.9751 0.455466 2.02985 -8.92911 -3.11329
lowerback 7.12412 1.64508 -1.88058
upperback 2.7459 2.06481 0.6388
thorax -1.24834 1.01764 1.54491
lowerneck -2.99079 1.8965 -0.19097
upperneck 1.6222 2.32488 9.57171
head 0.910067 1.28484 3.14012
rclavicle 6.95746e-016 -1.94809e-014
rhumerus -31.8569 13.2531 -93.1251
rradius 41.0988
rwrist 14.4939
rhand 19.7264 -3.34683
rfingers 7.12502
rthumb 44.2801 -27.1244
lclavicle 6.95746e-016 -1.94809e-014
lhumerus -43.741 -21.2208 96.9816
lradius 49.2377
lwrist 9.20994
lhand -3.96436 35.8983
lfingers 7.12502
lthumb 21.7882 64.6919
rfemur -2.85286 6.82848 20.3338
rtibia 15.9329
rfoot -15.498 -8.15281
rtoes -13.2849
lfemur -5.7862 -0.811701 -19.2885
ltibia 26.5288
lfoot -23.9933 17.0234
ltoes -11.6396
